<svg width="609" height="639" viewBox="0 0 609 639" fill="none" xmlns="http://www.w3.org/2000/svg">
<g clip-path="url(#clip0_7766_211521)">
<path d="M290.93 0.320264C303.13 0.0302643 316.73 -0.229736 328.87 0.320264C459.76 6.22026 617.29 78.4203 608.45 231.86C605.54 282.4 592.11 358.98 582.33 409.7C575.06 447.4 559.42 482.1 533.54 510.33C529.05 515.23 524.44 519.88 519.56 524.33C502.52 539.89 498.42 540.88 484.23 559.95C469.09 580.3 456.9 594.25 434.7 607.33C429.18 610.58 422.6 613.74 416.73 616.33C410.86 618.92 406.08 621.19 399.76 623.33C358.38 637.33 308.21 640.29 264.98 635.33C243.18 632.83 219.57 627.19 199.09 619.33C174.29 609.81 147.68 591.74 131.79 570.24C126.82 563.51 122.26 551.49 117.62 546.44C112.25 540.61 96.3201 531.98 88.7801 525.33C55.0001 495.49 35.6801 456.24 26.8301 412.38C16.6501 361.91 3.10005 284.82 0.410055 234.32C-0.0899453 224.98 -0.179945 212.62 0.410055 203.32C9.20005 63.8803 171.74 3.15026 290.93 0.320264ZM283.75 21.6203C165.68 27.0603 13.5701 91.8803 21.3401 231.86C23.8801 277.65 44.4101 413.98 62.4501 452.68C72.7801 474.82 88.8201 494.93 107.22 510.83C113.71 516.43 132.72 527.68 136.22 531.79C139.2 535.29 144 548.18 147.95 554.04C203.15 635.84 393.01 635.56 455.17 562.33C463.21 552.86 468.04 538.32 474.09 531.28C478.94 525.64 495.91 515.78 503.11 509.35C535.95 480.01 552.2 448.37 561.01 405.34C571.14 355.87 581.87 289.75 586.3 239.67C600.68 77.2003 416.26 15.5303 283.75 21.6203Z" fill="#F9F9F9"/>
<path d="M283.75 21.6205C416.26 15.5305 600.68 77.1905 586.31 239.671C581.88 289.751 571.15 355.871 561.02 405.341C552.21 448.361 535.96 480.011 503.12 509.351C495.92 515.781 478.95 525.641 474.1 531.281C468.05 538.311 463.22 552.861 455.18 562.331C393.02 635.561 203.16 635.84 147.96 554.04C144.01 548.18 139.21 535.28 136.23 531.79C132.73 527.69 113.72 516.441 107.23 510.831C88.82 494.931 72.78 474.821 62.46 452.681C44.41 413.981 23.89 277.651 21.35 231.861C13.57 91.8805 165.68 27.0605 283.75 21.6205ZM459.66 526.321C463.36 520.121 483.31 508.221 490.62 501.831C532.61 465.101 541.66 433.761 551.19 380.501C559.14 336.031 570.8 275.911 573.45 231.801C587.8 -6.67949 109.99 -28.0295 42.33 172.811C25.6 222.48 48.81 332.891 58.64 387.501C70.48 453.301 92.78 488.851 149.17 525.321C152.19 535.371 157.95 545.321 164.64 553.331C220.89 620.661 400.96 620.01 450.91 545.05C455.02 538.88 456.6 531.461 459.67 526.321H459.66Z" fill="#0A0A0A"/>
<path fill-rule="evenodd" clip-rule="evenodd" d="M42.33 172.81C109.99 -28.0296 587.8 -6.67937 573.45 231.801C570.8 275.92 559.14 336.03 551.19 380.5C541.66 433.76 532.61 465.1 490.62 501.83C483.31 508.22 463.37 520.12 459.66 526.32C365.84 583.98 242.24 585.51 149.17 525.32C92.7799 488.85 70.4805 453.3 58.6405 387.5C48.8105 332.88 25.6001 222.48 42.33 172.81Z" fill="#FCFCFC"/>
<path d="M459.66 526.32C456.59 531.45 455.01 538.88 450.9 545.05C400.96 620.01 220.88 620.66 164.63 553.33C157.94 545.32 152.19 535.37 149.16 525.32C242.24 585.51 365.83 583.98 459.65 526.32H459.66Z" fill="#DBDCDC"/>
<path d="M500.59 304.32C454.2 219.33 339.44 196.9 250.82 212.64C196.23 222.34 133.88 252.38 110.23 305.32C28.47 224.31 77.17 127.99 169.46 86.1499C253.74 47.9399 367.19 48.1499 449.69 90.7999C537.07 135.98 576.05 225.81 500.59 304.32Z" fill="#E9EAEA"/>
<path d="M500.59 304.32C492.93 312.29 486.45 319.26 477.63 326.32L474.63 328.32L471.63 330.32C469.42 331.16 467.66 332.18 465.64 333.32C447.47 262.31 362.39 234.02 296.37 236.27C237.01 238.3 157.41 268.34 146.16 334.32C128.68 323.39 124.55 319.52 110.22 305.32C133.88 252.38 196.22 222.34 250.81 212.64C339.43 196.9 454.19 219.33 500.58 304.32H500.59Z" fill="#043484"/>
<path d="M465.65 333.32C451.98 341.04 438.55 348.86 422.72 355.32C424.92 295.13 356.53 266.17 305.42 266.24C254.45 266.3 184.67 294.55 188.1 355.32C170.38 348.48 162.19 344.34 146.17 334.32C157.42 268.34 237.02 238.3 296.38 236.27C362.41 234.02 447.48 262.31 465.65 333.32Z" fill="#E6E8E8"/>
<path d="M422.72 355.32C422.04 355.6 421.41 356.05 420.72 356.32L418.72 357.32C417.76 357.68 416.72 357.96 415.72 358.32C411.22 359.95 406.26 361.92 401.74 363.32C392.63 366.15 383.29 369.01 373.79 370.32C394.39 318.2 341.79 292.73 297.36 295.27C258.25 297.5 216.23 327.22 237.01 370.32C219.09 366.59 205.04 361.87 188.09 355.32C184.67 294.54 254.44 266.3 305.41 266.24C356.52 266.18 424.91 295.13 422.71 355.32H422.72Z" fill="#043484"/>
<path d="M373.8 370.321C373.8 370.321 370.16 371.101 368.47 371.381C322.67 379.091 282.65 379.811 237.02 370.321C216.24 327.221 258.26 297.501 297.37 295.271C341.8 292.731 394.4 318.201 373.8 370.321Z" fill="#E8E8E9"/>
</g>
<defs>
<clipPath id="clip0_7766_211521">
<rect width="608.81" height="638.95" fill="white"/>
</clipPath>
</defs>
</svg>
